<svg id="Layer_1" data-name="Layer 1" xmlns="http://www.w3.org/2000/svg" viewBox="0 0 19.94 10.94"><defs><style>.cls-1{fill:#fff;}</style></defs><path class="cls-1" d="M11.21,15.69a.77.77,0,0,1-.28.57,5.47,5.47,0,1,1,0-8.54A.75.75,0,0,1,11,8.78.76.76,0,0,1,10,8.91a3.95,3.95,0,1,0,0,6.17.76.76,0,0,1,1,0A.77.77,0,0,1,11.21,15.69Z" transform="translate(-2.03 -6.53)"/><path class="cls-1" d="M16.5,6.53a5.47,5.47,0,1,1-3.4,9.75.76.76,0,0,1,0-1.15.74.74,0,0,1,1,0,3.95,3.95,0,1,0,0-6.17.76.76,0,0,1-1,0,.77.77,0,0,1,0-1.15A5.48,5.48,0,0,1,16.5,6.53Z" transform="translate(-2.03 -6.53)"/></svg>