<?xml version="1.0" encoding="UTF-8"?>
<svg xmlns="http://www.w3.org/2000/svg" xmlns:xlink="http://www.w3.org/1999/xlink" width="120px" height="120px" viewBox="0 0 120 120" version="1.1">
<g id="surface1">
<path style=" stroke:none;fill-rule:evenodd;fill:rgb(13.333333%,13.333333%,13.333333%);fill-opacity:1;" d="M 91.40625 0 C 108.75 0 120 11.25 120 28.59375 L 120 91.40625 C 120 108.75 108.75 120 91.40625 120 L 28.59375 120 C 11.25 120 0 108.75 0 91.40625 L 0 28.59375 C 0 11.25 11.25 0 28.59375 0 Z M 91.40625 0 "/>
<path style=" stroke:none;fill-rule:nonzero;fill:rgb(100%,100%,100%);fill-opacity:1;" d="M 50.609375 87.109375 C 54.089844 87.109375 56.910156 84.074219 56.910156 80.328125 C 56.910156 76.582031 54.089844 73.546875 50.609375 73.546875 L 44.304688 73.546875 C 37.34375 73.546875 31.699219 67.472656 31.699219 59.984375 C 31.699219 52.492188 37.34375 46.421875 44.304688 46.421875 L 50.609375 46.421875 C 54.089844 46.421875 56.910156 43.386719 56.910156 39.640625 C 56.910156 35.894531 54.089844 32.859375 50.609375 32.859375 L 44.304688 32.859375 C 30.378906 32.859375 19.089844 45.003906 19.089844 59.984375 C 19.089844 74.964844 30.378906 87.109375 44.304688 87.109375 Z M 50.609375 87.109375 "/>
<path style=" stroke:none;fill-rule:nonzero;fill:rgb(100%,100%,100%);fill-opacity:1;" d="M 69.316406 32.859375 C 65.820312 32.859375 62.988281 35.894531 62.988281 39.640625 C 62.988281 43.386719 65.820312 46.421875 69.316406 46.421875 L 75.640625 46.421875 C 82.628906 46.421875 88.292969 52.492188 88.292969 59.984375 C 88.292969 67.472656 82.628906 73.546875 75.640625 73.546875 L 69.316406 73.546875 C 65.820312 73.546875 62.988281 76.582031 62.988281 80.328125 C 62.988281 84.074219 65.820312 87.109375 69.316406 87.109375 L 75.640625 87.109375 C 89.613281 87.109375 100.941406 74.964844 100.941406 59.984375 C 100.941406 45.003906 89.613281 32.859375 75.640625 32.859375 Z M 69.316406 32.859375 "/>
</g>
</svg>
