<?xml version="1.0" encoding="UTF-8"?><svg id="a" xmlns="http://www.w3.org/2000/svg" viewBox="0 0 24 24"><defs><style>.b{fill:#fff;}</style></defs><circle cx="12" cy="12" r="12"/><g><path class="b" d="M11.21,15.69c0,.22-.11,.43-.28,.57-2.23,1.79-5.47,1.56-7.43-.53-1.96-2.09-1.96-5.34-.02-7.45,1.94-2.1,5.18-2.36,7.42-.57,.33,.26,.38,.74,.13,1.07s-.74,.39-1.07,.13c-1.62-1.29-3.95-1.11-5.36,.4s-1.4,3.86,0,5.37,3.75,1.68,5.36,.39c.29-.23,.71-.22,.98,.03,.17,.15,.26,.36,.25,.58Z"/><path class="b" d="M16.5,6.53c2.4,0,4.52,1.56,5.23,3.85s-.16,4.78-2.14,6.13-4.61,1.26-6.49-.23c-.17-.14-.27-.35-.28-.57s.08-.43,.25-.58c.27-.25,.68-.27,.97-.04,1.62,1.29,3.96,1.11,5.36-.4,1.41-1.52,1.4-3.86,0-5.38s-3.75-1.68-5.36-.39c-.29,.23-.71,.22-.98-.03-.16-.15-.26-.36-.25-.58,0-.22,.11-.43,.28-.57,.97-.78,2.18-1.21,3.43-1.21h0Z"/></g></svg>