<?xml version="1.0" encoding="utf-8"?>
<!-- Generator: Adobe Illustrator 24.1.2, SVG Export Plug-In . SVG Version: 6.00 Build 0)  -->
<svg version="1.1" id="Layer_1" xmlns="http://www.w3.org/2000/svg" xmlns:xlink="http://www.w3.org/1999/xlink" x="0px" y="0px"
	 viewBox="0 0 24 24" enable-background="new 0 0 24 24" xml:space="preserve">
<g display="none">
	<circle display="inline" fill="#4361EE" cx="12" cy="12" r="12"/>
</g>
<g>
	<g>
		<path fill="#FFFFFF" d="M11,16.4c0,0.3-0.1,0.5-0.3,0.7C8,19.3,4.1,19,1.8,16.5s-2.4-6.4,0-9S8,4.7,10.7,6.8
			c0.4,0.3,0.5,0.9,0.2,1.3c-0.3,0.4-0.9,0.5-1.3,0.2C7.6,6.7,4.8,6.9,3.1,8.8c-1.7,1.8-1.7,4.6,0,6.5c1.7,1.8,4.5,2,6.4,0.5
			c0.3-0.3,0.9-0.3,1.2,0C10.9,15.9,11,16.2,11,16.4z"/>
		<path fill="#FFFFFF" d="M17.4,5.4c2.9,0,5.4,1.9,6.3,4.6s-0.2,5.7-2.6,7.4c-2.4,1.6-5.5,1.5-7.8-0.3C13.1,17,13,16.7,13,16.5
			s0.1-0.5,0.3-0.7c0.3-0.3,0.8-0.3,1.2-0.1c1.9,1.6,4.8,1.3,6.4-0.5s1.7-4.6,0-6.5s-4.5-2-6.4-0.5c-0.3,0.3-0.9,0.3-1.2,0
			C13.1,8.1,13,7.8,13,7.6c0-0.3,0.1-0.5,0.3-0.7C14.5,5.9,15.9,5.4,17.4,5.4L17.4,5.4z"/>
	</g>
</g>
</svg>
